<?xml version="1.0" encoding="UTF-8"?>
<svg xmlns="http://www.w3.org/2000/svg" version="1.1" xmlns:xlink="http://www.w3.org/1999/xlink" viewBox="0 0 3988.71 6700">
  <defs>
    <clipPath id="clippath">
      <rect width="3988.71" height="6700" fill="none"/>
    </clipPath>
  </defs>
  <!-- Generator: Adobe Illustrator 28.6.0, SVG Export Plug-In . SVG Version: 1.2.0 Build 709)  -->
  <g>
    <g id="Blue_Pattern_Flower">
      <g clip-path="url(#clippath)">
        <rect width="3994.35" height="6686.17" fill="#dff3f4"/>
        <g>
          <path d="M58.22-359.95c-4.5-412.48,627.56-53.27,59.96,155.91,553.6-182.05,347.18,638.29,22.64,13.01,316.89,502.51-428.39,492.43-76.6,93.81-360.52,497.23-570.4-277.99-21.66-98.69-530.66-83.63,40.02-641.83,15.65-164.05Z" fill="#044199"/>
          <path d="M867.9,117.87c-2.61-478.34-585.85-21.97-28.58,137.64-583.08-194.58-346.06,525.24,19.64,41.52-367.01,540.33,375.8,564.04,32.74-99.51,359.32,593.12,585.39-98.36,33.36,18.66,534.97-73.94-56.06-597.95-57.16-98.3Z" fill="#044199"/>
          <path d="M1671.16-284.68c-30.85-605.24,546.93-149.57,37.41,21.6,558.28-85.74,322.28,592.69-34.34,57.81,340.16,501.02-385.34,602.56-82.01,59.9-325.68,476.12-505.33-269.7,12.66-51.42-553.31-147.75,56.82-580.04,66.28-87.89Z" fill="#044199"/>
          <path d="M2470.54,79.16c-2.43-509.57-641.22-13.31-86.55,94.87-502.96-180.05-334.85,672.23,29.41,87.95-310.38,521.24,408.36,500.04,81.82,11.24,292.49,445.2,521.39-153.87,6.45-122.36,539.81-55.75-66.54-450.05-31.13-71.7Z" fill="#044199"/>
          <path d="M3238.63-238.59c4.99-647.25,568.04-167.44,44.53-28.56,550.37-76.72,308.3,676.42-23.52,91.77,300.6,539.95-402.34,534.13-40.96,69.24-347.78,515.32-553.28-266.58-43.46-78.01-523.45-118.18,71.41-644.12,63.4-54.44Z" fill="#044199"/>
          <path d="M4013.12,140.48c-7.73-447.86-568.27-108.46-65.99,33.19-517.63-174.71-288.93,544.67,9.27,152.86-330.56,456.48,416.87,424.1,106.96-122.14,330.58,656.64,526.39-94.75-12.15,58.3,569.81-93.75-12.17-632.1-38.09-122.21Z" fill="#044199"/>
          <path d="M111.33,672.53c-49.02-643.89-639.66-168.87-91.03,15.99-503.77-81.82-307.27,496.44,3.84-60.33-312.12,560.64,431,614.72,105.12,49.36,300.68,589.44,532.59-194.8,35.34-68.94,484.14-47.92-72.4-469.01-53.27,63.91Z" fill="#044199"/>
          <path d="M870.14,1096.25c23.9-609.39,614.19-197.77,41.91,1.46,548.38-203.67,314.66,509.84-10.65,32.41,301.63,496.26-415.93,588.41-64.51-40.75-350.32,538.24-547.69-95.23-2.5-72.38-534.43-88.55,16.44-467.84,35.76,79.25Z" fill="#044199"/>
          <path d="M1642.74,686.56c13.15-573.51-548.45-148.26-33.7-18.31-546.09-232.54-293.75,555.28,1.73,8.25-323.93,613.93,416.89,651.34,77.28,74.6,322.02,408.12,530.93-260.46,24.39-189.47,517.59-6.3-73-533.11-69.7,124.93Z" fill="#044199"/>
          <path d="M2446.97,1051.8c21.21-615.73,593.17-152.09,61.69,12.6,531.85-90.21,269.17,707.45-15.88,162.33,298.72,427.12-436.53,374.24-90.8-89.98-343.91,623.14-554.26-164.25-31.52-57.08-489.3-147.95,57.1-612.04,76.51-27.86Z" fill="#044199"/>
          <path d="M3219.46,631.58c-9.08-639.29-582.45-68.76-54.65,37.41-539.21-227.4-325.31,498.14,58.02-27.88-354.15,593.93,359.51,521.45,20.41,74.31,340.46,549.99,595.69-159.01,67.34-114.9,478.31,14.14-53.31-512.07-91.12,31.06Z" fill="#044199"/>
          <path d="M4034.46,1074.96c.82-609.59,576.15-81.6,38.54,66.9,520.05-252.38,305.43,488.63-6.75-5.52,320.48,503.57-423.96,576.74-65.86,89.49-376.34,495.77-550.65-261.74-47.74-151.29-511.29-171.63,57.28-490.29,81.82.41Z" fill="#044199"/>
          <path d="M57.9,1533.57c19.11-497.49,589.45-115.38,76.68,66.3,560.77-171.29,314.68,519.33,6.12,68.96,329.03,456.54-405.77,547.24-104.56-108.07-329.45,568.11-519.1-235.11,6.89,8.99-530.24-145.85,16.37-583.89,14.87-36.18Z" fill="#044199"/>
          <path d="M873.15,1934.22c-31.86-571.62-596.95-172.53-32.34,92.69-554.76-98.68-321.81,558.16,20.85,54.87-330.51,437.52,371.11,454.32,43.24-68.83,327.41,572.95,567.8-83.97,28.69,53.2,522.28-274.28-66.1-674.89-60.45-131.93Z" fill="#044199"/>
          <path d="M1655.06,1552.93c-21.18-556,588.75-69.75,58.86,27.04,543.47-245.83,295.67,635.88-53.1,30.65,327.76,466.45-359.41,558.14-11.68,14.02-367.5,545.86-609.93-213.01-30.77-62.8-540.35-205.93,50.98-529.79,36.69-8.9Z" fill="#044199"/>
          <path d="M2463.84,1856.72c-34.23-384.11-581.16,80.64-102.04,123.64-513.84-136.4-312.43,519.97,30.22-27.78-316.93,651.94,406.88,674.94,75.53,61.96,335.01,628.6,548.27-160.7,17.21-66.51,519.37-130.8-24.56-478.69-20.92-91.31Z" fill="#044199"/>
          <path d="M3242.69,1498.68c-3.32-506.88,543.31-179.18,38.91-18.6,539.91-31.73,323.52,565.64-15.12,167.48,331.38,468.93-389.41,561.66-99.49,3.89-311.08,536.97-554.09-242.29,28.38-112.24-558.94-88.8,57.15-600.18,47.32-40.53Z" fill="#044199"/>
          <path d="M3996.18,1862.94c.62-550.74-595.4-37.59-12.64,119.7-584.78-219.03-358.28,585.95,6.58,96.86-322.3,414.85,357.53,479.63,61.79-86.87,354.26,628.12,543.69-66.59-2.2-40.88,565.39-72.38-60.41-576.19-53.54-88.81Z" fill="#044199"/>
          <path d="M62.37,2424.44c31.24-659.08-548.71-52.34-31.25-74.81-510.78-129.56-304.92,574.88-9.67,179.48-308.41,467.61,451.66,467.52,75.38-113.42,368.07,535.93,576.41-61.72,60.69-27.98,509.03-78.15-46.55-632.68-95.15,36.72Z" fill="#044199"/>
          <path d="M877.36,2775.4c-1.02-560.77,562.16-121.77,55.76,115.86,533.85-228.78,311.09,513.06-56.45,93.95,366.99,427.44-355.37,560.35-19.71-97.77-359.69,496.46-593.4-134.19-35.69-76.74-544.72-9.68,65.86-568.84,56.1-35.31Z" fill="#044199"/>
          <path d="M1647.07,2364.92c10.07-505.15-560.34-144.23-59.16,106.7-543.01-147.63-301.66,557.98,21.18,29.66-320.97,592.07,423.2,507.55,59.09,59.56,323.59,522.55,561.08-295.96,65.01-92.91,485.08-218.01-95.03-661.39-86.12-103.01Z" fill="#044199"/>
          <path d="M2456.19,2830.88c-1.36-464.27,551.39-79.2,64.86,105.82,483.04-183.25,260.86,513.63-74.15-59.31,370.7,650.18-393.39,519.98-65.09,110.55-318.44,553.2-541.71-281.31-22.88-194.23-534.51-106.83,86.17-573.9,97.26,37.17Z" fill="#044199"/>
          <path d="M3204.92,2465.78c9.8-635.77-574.87-172.88-54.73-37.84-518.15-83.15-277.46,634.1,24.08,95.56-304.42,546.4,423.35,526.32,103.92,48.55,300.18,489.42,553.29-227.77-13.99-122.39,532.39-139.9-56.89-599.57-59.29,16.12Z" fill="#044199"/>
          <path d="M3994.54,2726.71c10.69-456.76,581.07-46.55,65.76,162.24,538.05-222.12,332.14,489.06-13.56-3.33,316.66,575.45-411.52,586.84-87.63-27.16-293.69,516.38-510.11-150,15.6-62.26-570.44-12.63,60.87-586.21,19.83-69.48Z" fill="#044199"/>
          <path d="M72.21,3181.9c31-428.15,604.08,57.31,87.75,185.13,501.81-260.68,292.38,523.39-55.46,6.41,347.91,455.06-362.64,515.14-61.25,77.86-318.25,360.96-538.07-258.24-8.57-236.49-522.15,43.58,59.3-409.75,37.53-32.91Z" fill="#044199"/>
          <path d="M867.15,3749.84c-1.16-572.36-561.23-66.81-80.99,18.14-524.99-200.6-271.97,506.69,71.58,101.9-325.36,395.59,402.49,466.21,66.81,28.65,305.2,450.97,524.07-192.29-16.64-125.78,536.24-207.53-30.11-669.84-40.76-22.91Z" fill="#044199"/>
          <path d="M1674.47,3169.38c-4.66-359.75,562.7-19.58,9.62,219.04,530.36-283.7,324.59,440.27.51-47.47,313.99,642.21-413.71,564.27-59.21-65.45-353.73,625.43-580.02-112.4,1.7-26.86-581.12-122.63,21.57-533.48,47.38-79.26Z" fill="#044199"/>
          <path d="M2429.09,3629.24c6.25-394.04-599.24-74.45-43.62,71.15-560.99-75.3-308.15,695.08,31.06,29.33-311.1,602.69,366.74,621.4,31.16,32.36,368.56,650.9,571.83-235.13,22.32-55.41,555.45-82.74-25.06-473.76-40.93-77.43Z" fill="#044199"/>
          <path d="M3256.17,3185.05c-5.36-460.92,530.25-67.76,52.97,69.94,494.18-11,292.99,583.69-38.72,41.38,309.7,618.36-427.27,598.44-77.43,8.36-320.51,668.54-529.31-90.35,2.15,3.87-544.86-173.8,53.28-527.41,61.02-123.56Z" fill="#044199"/>
          <path d="M4035.4,3786.09c-18.22-697.11-620.35-188.33-48.31-67.37-540.67-79.36-313.61,557.4-14.76,151.24-300.19,476.12,387.28,509.32,99.98-54.02,287.73,545.8,537.05-269.56-6.02-40.11,547.7-142.74-55.42-581.25-30.88,10.26Z" fill="#044199"/>
          <path d="M61.76,4155.05c45.28-472.83-578.02-140.88-64.16,6.14-504.89-93.81-283.51,684.46,35.21,27.24-287.38,650.54,423.35,625.67,66.62,81.82,337.78,557.44,550.85-253.88,37.46-23.36,515.04-263.58-39.12-605.02-75.13-91.84Z" fill="#044199"/>
          <path d="M865.31,4596.71c-7.27-547.43,587.92-35.18,68.15-49.08,537.28-47.64,288.08,623.3-11.47,83.79,281.75,659.3-428.97,523.16-99.46,119.37-334.71,556.36-556.32-179.14-25.45-40.94-525.38-209.8,87.91-719.6,68.23-113.14Z" fill="#044199"/>
          <path d="M1631.46,4098.9c34.88-524.36-566.4.35-10.6,106.82-569.66-157.58-299.49,522.1-2.04,98.72-312.15,532.13,421.06,404.32,58.08,22.18,326.41,526.42,574.27-286.03,44.59-193.19,506.61-118.44-59.31-563.61-90.03-34.53Z" fill="#044199"/>
          <path d="M2453.93,4532.4c-42.26-530.47,552.79-23.58,14.74,5.67,580.51,9,333.41,598.87-1.72,191.83,308.4,426.84-372.64,524.49-34.55-117.89-324.52,601.85-594.06-50-34.7,28.39-548.06-109.52,34.22-624.71,56.22-108Z" fill="#044199"/>
          <path d="M3247.83,4161.6c-49.13-594.19-618.84-106.45-64.92-21.21-544.99-12.11-318.19,681.18,19.22,123.7-312.14,571.38,370.33,535.98,36.53-42.58,364.47,627.88,573.39-206.04,55.1-19.78,503.38-62.52-75.66-613.15-45.93-40.12Z" fill="#044199"/>
          <path d="M3996.55,4532.13c5.1-522.44,602.91-5.79,89.5,90.08,491.82-185.71,302.42,585.02-53.45,68.09,356.6,500.8-378.84,439.99-72.57-23.61-305.24,643.71-556.67-150.19-10.5-121.4-499.12-8.27,66.6-412.27,47.02-13.16Z" fill="#044199"/>
          <path d="M81.88,4976.62c2.66-491.97,586.73-98.96,63.88,55.97,509.07-148.77,320.81,627.27-42.93,43.31,335.63,509.48-358.65,604.09-60.4,72.82-308.02,457.58-523.41-297.48-14.86-125.77-526.62-6.37,25.28-594.16,54.31-46.32Z" fill="#044199"/>
          <path d="M855.81,5446.46c-7.1-489.78-602.11-72.7-65.47,80.49-482.04-139.45-303.45,619.08,69.21-36.24-381.51,557.37,366.95,550.14,19.08,25.38,375.3,618.91,562.79-213.22,73.38-41.09,528.65-129.19-113.81-592.64-96.2-28.53Z" fill="#044199"/>
          <path d="M1672.46,5072.44c10.11-632.07,547.98-218.09,34.79,55.75,512.05-156.16,317.61,489.87-19.33,92.08,339.65,474.9-401,380.85-96.28-17.23-278.74,505.14-505.29-249.11,21.95-217.18-543.42,41.55,21.19-458.63,58.87,86.59Z" fill="#044199"/>
          <path d="M2456.36,5383.47c12.89-393.34-586.81-14.14-64.88,107.55-566.11-174.97-320.98,547.19,35.56,14.86-370.6,640.18,385.28,557.52,76.33,116.4,272.56,401.78,552.87-215.87-31.48-135.03,528.75-120.2-11.23-588.48-15.53-103.78Z" fill="#044199"/>
          <path d="M3207.16,5096.39c-.11-589.04,587.17-215.15,45.47,21.77,577.84-255.23,331.21,529.87-10.89,68.48,329.87,414.73-376.51,452.52-77.13,4.52-326.7,476.32-513.91-246.34,30.64-152.21-535.38-143.1,27.15-508.69,11.9,57.44Z" fill="#044199"/>
          <path d="M3992.16,5521.08c-3.49-565.74-591.74-182.16-57.7,23.63-519.51-247.78-290.52,592.48,37.86-43.82-347.71,548.94,424.83,537.02,84.61,65.67,289.8,615.68,522.91-277.57-17.31,17.55,532.61-172.85-55.28-637.33-47.46-63.03Z" fill="#044199"/>
          <path d="M79.84,5922.45c8.41-635.52-606.16-118.17-38.89,75.02-540.96-205.47-331.44,481.53,11.99-17.29-350.47,649.79,412.34,620.23,72.02,90.78,314.99,518.08,514.86-180.67-12.64-134.58,535.08-86.31-53.7-617.31-32.48-13.94Z" fill="#044199"/>
          <path d="M852.92,6293.12c6.01-463.58,605.27-107.36,61.49,110.42,545.14-104.03,296.37,611.52,12.36,7.18,312.24,579.89-409.42,665.75-84.05-30.68-355.25,553.06-549.18-46.71-12.74-3.66-522.34-150.81,27.7-645.8,22.94-83.26Z" fill="#044199"/>
          <path d="M1655.46,5876.89c17.29-514.42-566.89-120-40.17,104.85-559.74-235.43-300.39,594.1,15.21,28.79-351.02,541.75,368.1,456.94,33.65,25.64,339.33,510.34,553.53-262.05,41.86-77.13,512.71-227.84-27.61-575.18-50.55-82.15Z" fill="#044199"/>
          <path d="M2462.5,6345.99c-14-447.81,562.17-160.59,38.48,61.53,503.02-139.94,300.14,594.05-27.8-35.6,322.02,606.39-396.55,644.75-93.43,169.59-287.7,412.98-510.76-311.01-.73-129.3-520.99-104.25,64.65-512.34,83.47-66.22Z" fill="#044199"/>
          <path d="M3249.9,5874.23c-8.48-463.6-632.83-135.58-57.37,84.73-554.52-74.42-316.32,540.26,1.59,17.55-303.6,656.52,402.25,559.85,55.18,107.99,368.4,435.61,542.51-296.67,23.46-188.68,522.79-128.72-40.58-606.06-22.86-21.58Z" fill="#044199"/>
          <path d="M4043.62,6351.73c-38.77-478.81,577.2-55.24,24.64,26.66,533.65-133.86,294.3,581-4.82,104.41,322.69,511.4-409.18,455.55-61.66,43.52-371.73,464.46-600.27-262.13-14.69-80.62-579.72-253.81,51.61-595.42,56.53-93.97Z" fill="#044199"/>
          <path d="M81.23,6789.01c-9.6-569.7,575.65-123.49,61.25,54.18,539.31-191.05,296.51,571.82-17.17,50.21,348.45,484.69-401.41,483.81-90.15,87.02-341.59,457.76-556.29-185.34-1.68-92.39-549.99-117.66,41.82-544.57,47.75-99.01Z" fill="#044199"/>
          <path d="M1673.72,6717.14c-6.43-379.76,548.66-29.82,28.88,21.88,567.11,42.53,298.2,730.81-20.8,202.05,352.88,420.18-394.25,443.4-71.62-51.77-290.58,512.15-537.76-269.58,15.52-29.13-574.06-170.37,51.68-639.05,48.03-143.04Z" fill="#044199"/>
          <path d="M3235.42,6760.9c-36.95-549.6,563.81-76.65,29.85,86.52,543.14-220.29,304.39,542.29-4.49,14.13,313.8,570.64-424.45,655.37-39.76-45.9-349.8,618.68-574.6-182.25-40.38,11.34-536.9-80.2,21.64-551.07,54.79-66.09Z" fill="#044199"/>
        </g>
      </g>
    </g>
  </g>
</svg>